<svg version="1.1" viewBox="0.0 0.0 698.6272965879265 266.7979002624672" fill="none" stroke="none" stroke-linecap="square" stroke-miterlimit="10" xmlns:xlink="http://www.w3.org/1999/xlink" xmlns="http://www.w3.org/2000/svg"><clipPath id="p.0"><path d="m0 0l698.6273 0l0 266.7979l-698.6273 0l0 -266.7979z" clip-rule="nonzero"/></clipPath><g clip-path="url(#p.0)"><path fill="#000000" fill-opacity="0.0" d="m0 0l698.6273 0l0 266.7979l-698.6273 0z" fill-rule="evenodd"/><path fill="#000000" fill-opacity="0.0" d="m230.91362 68.89239l0 0c0 -12.619923 12.486679 -22.850391 27.889755 -22.850391l0 0c15.403107 0 27.88977 10.230469 27.88977 22.850391l0 0c0 12.619926 -12.486664 22.850395 -27.88977 22.850395l0 0c-15.403076 0 -27.889755 -10.230469 -27.889755 -22.850395z" fill-rule="evenodd"/><path stroke="#657b83" stroke-width="2.0" stroke-linejoin="round" stroke-linecap="butt" d="m230.91362 68.89239l0 0c0 -12.619923 12.486679 -22.850391 27.889755 -22.850391l0 0c15.403107 0 27.88977 10.230469 27.88977 22.850391l0 0c0 12.619926 -12.486664 22.850395 -27.88977 22.850395l0 0c-15.403076 0 -27.889755 -10.230469 -27.889755 -22.850395z" fill-rule="evenodd"/><path fill="#000000" fill-opacity="0.0" d="m258.80338 91.74278l3.1181335 74.20473" fill-rule="evenodd"/><path stroke="#657b83" stroke-width="2.0" stroke-linejoin="round" stroke-linecap="butt" d="m258.80338 91.74278l3.1181335 74.20473" fill-rule="evenodd"/><path fill="#000000" fill-opacity="0.0" d="m263.98648 159.67928l-24.314941 55.496063" fill-rule="evenodd"/><path stroke="#657b83" stroke-width="2.0" stroke-linejoin="round" stroke-linecap="butt" d="m263.98648 159.67928l-24.314941 55.496063" fill-rule="evenodd"/><path fill="#000000" fill-opacity="0.0" d="m261.96 165.05353l27.370087 53.76378" fill-rule="evenodd"/><path stroke="#657b83" stroke-width="2.0" stroke-linejoin="round" stroke-linecap="butt" d="m261.96 165.05353l27.370087 53.76378" fill-rule="evenodd"/><path fill="#000000" fill-opacity="0.0" d="m259.8218 98.21401l44.22046 23.527557" fill-rule="evenodd"/><path stroke="#657b83" stroke-width="2.0" stroke-linejoin="round" stroke-linecap="butt" d="m259.8218 98.21401l44.22046 23.527557" fill-rule="evenodd"/><path fill="#000000" fill-opacity="0.0" d="m298.04868 168.3801l4.598419 -47.90551" fill-rule="evenodd"/><path stroke="#657b83" stroke-width="2.0" stroke-linejoin="round" stroke-linecap="butt" d="m298.04868 168.3801l4.598419 -47.90551" fill-rule="evenodd"/><path fill="#000000" fill-opacity="0.0" d="m258.32718 98.938095l-34.07872 18.48819" fill-rule="evenodd"/><path stroke="#657b83" stroke-width="2.0" stroke-linejoin="round" stroke-linecap="butt" d="m258.32718 98.938095l-34.07872 18.48819" fill-rule="evenodd"/><path fill="#000000" fill-opacity="0.0" d="m224.45932 115.79265l-26.834656 -3.7480316" fill-rule="evenodd"/><path stroke="#657b83" stroke-width="2.0" stroke-linejoin="round" stroke-linecap="butt" d="m224.45932 115.79265l-26.834656 -3.7480316" fill-rule="evenodd"/><path fill="#fdf6e3" d="m30.097113 112.04462l0 0c0 -45.87007 37.50232 -83.055115 83.76378 -83.055115l0 0c22.215538 0 43.521187 8.750423 59.229942 24.326279c15.7087555 15.575859 24.533829 36.70125 24.533829 58.728836l0 0c0 45.87007 -37.50232 83.055115 -83.76377 83.055115l0 0c-46.26146 0 -83.76378 -37.185043 -83.76378 -83.055115z" fill-rule="evenodd"/><path fill="#000000" fill-opacity="0.0" d="m113.86089 28.989502l0 166.11023m-83.76378 -83.055115l167.52756 0" fill-rule="evenodd"/><path fill="#000000" fill-opacity="0.0" d="m30.097113 112.04462l0 0c0 -45.87007 37.50232 -83.055115 83.76378 -83.055115l0 0c22.215538 0 43.521187 8.750423 59.229942 24.326279c15.7087555 15.575859 24.533829 36.70125 24.533829 58.728836l0 0c0 45.87007 -37.50232 83.055115 -83.76377 83.055115l0 0c-46.26146 0 -83.76378 -37.185043 -83.76378 -83.055115z" fill-rule="evenodd"/><path stroke="#dc322f" stroke-width="2.0" stroke-linejoin="round" stroke-linecap="butt" d="m113.86089 28.989502l0 166.11023m-83.76378 -83.055115l167.52756 0" fill-rule="evenodd"/><path stroke="#dc322f" stroke-width="2.0" stroke-linejoin="round" stroke-linecap="butt" d="m30.097113 112.04462l0 0c0 -45.87007 37.50232 -83.055115 83.76378 -83.055115l0 0c22.215538 0 43.521187 8.750423 59.229942 24.326279c15.7087555 15.575859 24.533829 36.70125 24.533829 58.728836l0 0c0 45.87007 -37.50232 83.055115 -83.76377 83.055115l0 0c-46.26146 0 -83.76378 -37.185043 -83.76378 -83.055115z" fill-rule="evenodd"/><path fill="#000000" fill-opacity="0.0" d="m54.630955 170.77345l-24.535433 73.921265" fill-rule="evenodd"/><path stroke="#657b83" stroke-width="2.0" stroke-linejoin="round" stroke-linecap="butt" d="m54.630955 170.77345l-24.535433 73.921265" fill-rule="evenodd"/><path fill="#000000" fill-opacity="0.0" d="m173.09084 170.77345l20.220459 68.8819" fill-rule="evenodd"/><path stroke="#657b83" stroke-width="2.0" stroke-linejoin="round" stroke-linecap="butt" d="m173.09084 170.77345l20.220459 68.8819" fill-rule="evenodd"/><path fill="#fdf6e3" d="m548.26404 107.683716l0 0c0 -24.491875 21.25061 -44.34646 47.46454 -44.34646l0 0c26.21399 0 47.4646 19.854584 47.4646 44.34646l0 0c0 24.491867 -21.25061 44.34645 -47.4646 44.34645l0 0c-26.213928 0 -47.46454 -19.854584 -47.46454 -44.34645z" fill-rule="evenodd"/><path fill="#000000" fill-opacity="0.0" d="m595.7286 63.337257l0 88.69291m-47.46454 -44.34645l94.92914 0" fill-rule="evenodd"/><path fill="#000000" fill-opacity="0.0" d="m548.26404 107.683716l0 0c0 -24.491875 21.25061 -44.34646 47.46454 -44.34646l0 0c26.21399 0 47.4646 19.854584 47.4646 44.34646l0 0c0 24.491867 -21.25061 44.34645 -47.4646 44.34645l0 0c-26.213928 0 -47.46454 -19.854584 -47.46454 -44.34645z" fill-rule="evenodd"/><path stroke="#859900" stroke-width="2.0" stroke-linejoin="round" stroke-linecap="butt" d="m595.7286 63.337257l0 88.69291m-47.46454 -44.34645l94.92914 0" fill-rule="evenodd"/><path stroke="#859900" stroke-width="2.0" stroke-linejoin="round" stroke-linecap="butt" d="m548.26404 107.683716l0 0c0 -24.491875 21.25061 -44.34646 47.46454 -44.34646l0 0c26.21399 0 47.4646 19.854584 47.4646 44.34646l0 0c0 24.491867 -21.25061 44.34645 -47.4646 44.34645l0 0c-26.213928 0 -47.46454 -19.854584 -47.46454 -44.34645z" fill-rule="evenodd"/><path fill="#000000" fill-opacity="0.0" d="m562.1661 139.0414l-13.921265 39.46457" fill-rule="evenodd"/><path stroke="#657b83" stroke-width="2.0" stroke-linejoin="round" stroke-linecap="butt" d="m562.1661 139.0414l-13.921265 39.46457" fill-rule="evenodd"/><path fill="#000000" fill-opacity="0.0" d="m629.2911 139.0414l11.4646 36.7874" fill-rule="evenodd"/><path stroke="#657b83" stroke-width="2.0" stroke-linejoin="round" stroke-linecap="butt" d="m629.2911 139.0414l11.4646 36.7874" fill-rule="evenodd"/><path fill="#000000" fill-opacity="0.0" d="m423.5278 65.308395l0 0c0 -12.619919 12.486664 -22.850391 27.88974 -22.850391l0 0c15.403107 0 27.88977 10.230473 27.88977 22.850391l0 0c0 12.619926 -12.486664 22.850395 -27.88977 22.850395l0 0c-15.403076 0 -27.88974 -10.230469 -27.88974 -22.850395z" fill-rule="evenodd"/><path stroke="#657b83" stroke-width="2.0" stroke-linejoin="round" stroke-linecap="butt" d="m423.5278 65.308395l0 0c0 -12.619919 12.486664 -22.850391 27.88974 -22.850391l0 0c15.403107 0 27.88977 10.230473 27.88977 22.850391l0 0c0 12.619926 -12.486664 22.850395 -27.88977 22.850395l0 0c-15.403076 0 -27.88974 -10.230469 -27.88974 -22.850395z" fill-rule="evenodd"/><path fill="#000000" fill-opacity="0.0" d="m451.41754 88.15879l3.1181335 74.20472" fill-rule="evenodd"/><path stroke="#657b83" stroke-width="2.0" stroke-linejoin="round" stroke-linecap="butt" d="m451.41754 88.15879l3.1181335 74.20472" fill-rule="evenodd"/><path fill="#000000" fill-opacity="0.0" d="m456.60068 156.09529l-24.314972 55.496063" fill-rule="evenodd"/><path stroke="#657b83" stroke-width="2.0" stroke-linejoin="round" stroke-linecap="butt" d="m456.60068 156.09529l-24.314972 55.496063" fill-rule="evenodd"/><path fill="#000000" fill-opacity="0.0" d="m454.57416 161.46953l27.370087 53.76378" fill-rule="evenodd"/><path stroke="#657b83" stroke-width="2.0" stroke-linejoin="round" stroke-linecap="butt" d="m454.57416 161.46953l27.370087 53.76378" fill-rule="evenodd"/><path fill="#000000" fill-opacity="0.0" d="m452.43597 94.63002l44.22046 23.527557" fill-rule="evenodd"/><path stroke="#657b83" stroke-width="2.0" stroke-linejoin="round" stroke-linecap="butt" d="m452.43597 94.63002l44.22046 23.527557" fill-rule="evenodd"/><path fill="#000000" fill-opacity="0.0" d="m454.78217 142.42651l40.472443 -25.543312" fill-rule="evenodd"/><path stroke="#657b83" stroke-width="2.0" stroke-linejoin="round" stroke-linecap="butt" d="m454.78217 142.42651l40.472443 -25.543312" fill-rule="evenodd"/><path fill="#000000" fill-opacity="0.0" d="m450.94138 95.35411l-33.826782 23.149605" fill-rule="evenodd"/><path stroke="#657b83" stroke-width="2.0" stroke-linejoin="round" stroke-linecap="butt" d="m450.94138 95.35411l-33.826782 23.149605" fill-rule="evenodd"/><path fill="#000000" fill-opacity="0.0" d="m417.0866 112.207985l12.125977 47.496056" fill-rule="evenodd"/><path stroke="#657b83" stroke-width="2.0" stroke-linejoin="round" stroke-linecap="butt" d="m417.0866 112.207985l12.125977 47.496056" fill-rule="evenodd"/></g></svg>